<?xml version="1.0" encoding="UTF-8" standalone="no"?>
<svg width="512" height="512" viewBox="0 0 512 512" version="1.1" xmlns="http://www.w3.org/2000/svg">
    
    <!-- Dog Paw Print - Large and centered, matching reference -->
    <g transform="translate(256, 200)">
        <!-- Main pad - rounded triangular/heart shape -->
        <path d="M 0 85 
                 C -70 85, -95 40, -85 0
                 C -75 -30, -45 -45, 0 -45
                 C 45 -45, 75 -30, 85 0
                 C 95 40, 70 85, 0 85 Z" 
              fill="#000000" />
        
        <!-- Toe pads - 4 ovals arranged in arc -->
        <!-- Left outer toe -->
        <ellipse cx="-72" cy="-75" rx="28" ry="38" fill="#000000" transform="rotate(-20, -72, -75)" />
        
        <!-- Left inner toe -->
        <ellipse cx="-28" cy="-100" rx="26" ry="36" fill="#000000" transform="rotate(-8, -28, -100)" />
        
        <!-- Right inner toe -->
        <ellipse cx="28" cy="-100" rx="26" ry="36" fill="#000000" transform="rotate(8, 28, -100)" />
        
        <!-- Right outer toe -->
        <ellipse cx="72" cy="-75" rx="28" ry="38" fill="#000000" transform="rotate(20, 72, -75)" />
    </g>
    
    <!-- HIATME - Very large, clean font -->
    <text x="256" y="400" 
          font-family="'Segoe UI', 'SF Pro Display', Helvetica, Arial, sans-serif" 
          font-size="96" 
          font-weight="700" 
          fill="#ffffff" 
          text-anchor="middle"
          letter-spacing="6">
        HIATME
    </text>
    
    <!-- Powered by AI tagline -->
    <text x="256" y="455" 
          font-family="'Segoe UI', 'SF Pro Display', Helvetica, Arial, sans-serif" 
          font-size="28" 
          fill="#60a5fa" 
          text-anchor="middle"
          letter-spacing="6"
          font-weight="500">
        POWERED BY AI
    </text>
</svg>
