<?xml version="1.0" encoding="UTF-8" standalone="no"?>
<svg width="512" height="512" viewBox="0 0 512 512" version="1.1" xmlns="http://www.w3.org/2000/svg">
    <!-- Background gradient -->
    <defs>
        <linearGradient id="bgGrad" x1="0%" y1="0%" x2="100%" y2="100%">
            <stop offset="0%" style="stop-color:#3b82f6"/>
            <stop offset="100%" style="stop-color:#1d4ed8"/>
        </linearGradient>
    </defs>
    
    <!-- Background -->
    <rect width="512" height="512" fill="url(#bgGrad)" />
    
    <!-- Dog Paw Print - matching reference -->
    <g transform="translate(256, 270)">
        <!-- Main pad - rounded triangular/heart shape -->
        <path d="M 0 75 
                 C -60 75, -85 35, -75 0
                 C -65 -25, -40 -40, 0 -40
                 C 40 -40, 65 -25, 75 0
                 C 85 35, 60 75, 0 75 Z" 
              fill="#ffffff" />
        
        <!-- Toe pads - 4 ovals arranged in arc -->
        <ellipse cx="-62" cy="-65" rx="24" ry="32" fill="#ffffff" transform="rotate(-20, -62, -65)" />
        <ellipse cx="-24" cy="-88" rx="22" ry="30" fill="#ffffff" transform="rotate(-8, -24, -88)" />
        <ellipse cx="24" cy="-88" rx="22" ry="30" fill="#ffffff" transform="rotate(8, 24, -88)" />
        <ellipse cx="62" cy="-65" rx="24" ry="32" fill="#ffffff" transform="rotate(20, 62, -65)" />
    </g>
</svg>
